<svg xmlns="http://www.w3.org/2000/svg" xmlns:xlink="http://www.w3.org/1999/xlink" width="125" height="125" viewBox="0 0 17 5.369">
	<g transform="translate(-4 -9)">
		<path id="Path_1" data-name="Path 1" d="M12.332,5.368a4.511,4.511,0,0,0,2.822-.963A5.581,5.581,0,0,0,17,1.789L14.666.344a2.755,2.755,0,0,1-2.613,2.134,3.253,3.253,0,0,1-1.2-.258q-.645-.258-1.724-.775Q7.733.758,6.741.38A5.737,5.737,0,0,0,4.668,0,4.567,4.567,0,0,0,1.846.946,5.464,5.464,0,0,0,0,3.58L2.334,5.025q.835-2.168,2.613-2.168A3.039,3.039,0,0,1,6.1,3.1q.591.24,1.776.826,1.393.688,2.386,1.067a5.778,5.778,0,0,0,2.073.378Z" transform="translate(4 9)"></path>
	</g>
</svg>