<svg xmlns="http://www.w3.org/2000/svg" xmlns:xlink="http://www.w3.org/1999/xlink" width="125" height="125" viewBox="0 0 150 150">
        <defs>
            <linearGradient id="linear-gradient" x1="0.5" y1="1" x2="0.5" gradientUnits="objectBoundingBox">
                <stop offset="0" stop-color="#951f28"></stop>
                <stop offset="1" stop-color="#e9b51c"></stop>
            </linearGradient>
            <linearGradient id="linear-gradient-2" x1="0" y1="0.5" x2="1" y2="0.5" xlink:href="#linear-gradient"></linearGradient>
            <linearGradient id="linear-gradient-4" x1="-0.282" y1="0.765" x2="0.957" y2="-0.028" gradientUnits="objectBoundingBox">
                <stop offset="0" stop-color="#e9b51c"></stop>
                <stop offset="1" stop-color="#951f28"></stop>
            </linearGradient>
            <linearGradient id="linear-gradient-5" x1="0" y1="0.5" x2="1" y2="0.5" xlink:href="#linear-gradient-4"></linearGradient>
            <linearGradient id="linear-gradient-6" x1="0" y1="0.498" x2="1" y2="0.498" xlink:href="#linear-gradient-4"></linearGradient>
            <linearGradient id="linear-gradient-8" x1="0.001" y1="0.5" x2="1" y2="0.5" xlink:href="#linear-gradient-4"></linearGradient>
            <linearGradient id="linear-gradient-9" x1="0" y1="0.489" x2="1" y2="0.489" xlink:href="#linear-gradient-4"></linearGradient>
            <clipPath id="clip-cheqd">
                <rect width="150" height="150"></rect>
            </clipPath>
        </defs>
        <g clip-path="url(#clip-cheqd)">
            <g transform="translate(-197.346 -59.608)">
                <g transform="translate(208.346 63.608)">
                    <g transform="translate(83.068 83.91)">
                        <g>
                            <path d="M520.842,343.219a15.361,15.361,0,0,0-21.027,5.461l-.325.515-7.356,12.737a10.563,10.563,0,0,1-.923,1.6l-.076.129a10.085,10.085,0,0,1-8.082,4.259h33.754c4.543,0,7.818-1.482,9.6-3.884l.81-1.618A15.355,15.355,0,0,0,520.842,343.219Z" transform="translate(-483.053 -341.098)"></path>
                        </g>
                    </g>
                    <g transform="translate(40.067 106.447)">
                        <path d="M417.6,419.916H348.945a10.081,10.081,0,0,1-8.1-4.289l2.473,4.289,14.068,24.364c2.362,4.094,5.421,6.217,8.517,6.423.326.005.655.005.982,0a30.015,30.015,0,0,0,14.3-3.523l36.036-20.808a29.719,29.719,0,0,0,9.9-10.122c.1-.161.195-.322.295-.481C425.683,418.332,422.316,419.916,417.6,419.916Z" transform="translate(-340.848 -415.627)"></path>
                    </g>
                    <g transform="translate(3.282 66.899)">
                        <path d="M272.526,353.043l-14.068-24.364-2.545-4.412a10.32,10.32,0,0,1-.888-1.537l-16.132-27.94a10.219,10.219,0,0,1-1.276-2.209,10.14,10.14,0,0,1,0-7.738l-2.232,3.871-14.064,24.361c-2.362,4.081-2.674,7.787-1.315,10.568.163.3.334.59.509.884a30,30,0,0,0,10.193,10.607l36.035,20.808a30.015,30.015,0,0,0,14.3,3.523C277.948,359.26,274.888,357.137,272.526,353.043Z" transform="translate(-219.201 -284.843)"></path>
                    </g>
                    <g transform="translate(0 30.802)">
                        <path d="M250.886,165.471h-28.13c-4.711,0-8.073,1.575-9.805,4.136-.179.3-.354.6-.521.91a29.951,29.951,0,0,0-4.083,14.116v41.611a29.974,29.974,0,0,0,4.088,14.125c-1.359-2.781-1.047-6.487,1.315-10.568l14.064-24.361,2.232-3.871a10.254,10.254,0,0,1,1.276-2.207l16.139-27.949.878-1.526.082-.144h0a10.08,10.08,0,0,1,7.836-4.27Z" transform="translate(-208.346 -165.471)"></path>
                    </g>
                    <g transform="translate(4.604 0.013)">
                        <path d="M307.659,94.439,293.593,70.073c-2.353-4.079-5.4-6.2-8.488-6.419-.348-.007-.693-.007-1.043,0a29.982,29.982,0,0,0-14.269,3.521L233.758,87.982a30.022,30.022,0,0,0-10.185,10.594c1.732-2.561,5.094-4.136,9.805-4.136H302.3a10.072,10.072,0,0,1,7.817,4.249Z" transform="translate(-223.573 -63.649)"></path>
                    </g>
                    <path d="M423.713,531.623a7.932,7.932,0,0,0,.982,0C424.368,531.628,424.039,531.628,423.713,531.623Z" transform="translate(-358.588 -390.1)"></path>
                    <path d="M221.851,180.06c.167-.305.343-.608.521-.91A6.687,6.687,0,0,0,221.851,180.06Z" transform="translate(-217.767 -144.211)"></path>
                    <path d="M222.372,414.041c-.174-.295-.346-.587-.509-.884A7.75,7.75,0,0,0,222.372,414.041Z" transform="translate(-217.776 -307.457)"></path>
                    <path d="M424.651,63.626a7.6,7.6,0,0,0-1.043,0C423.958,63.619,424.3,63.619,424.651,63.626Z" transform="translate(-358.515 -63.608)"></path>
                    <g transform="translate(66.136 0.018)">
                        <path d="M486.8,97.389a29.234,29.234,0,0,0-9.44-9.4L441.327,67.187a29.978,29.978,0,0,0-14.269-3.521c3.084.216,6.135,2.34,8.488,6.419l14.067,24.366,11.152,19.487A15.428,15.428,0,0,0,487.37,98.31Z" transform="translate(-427.058 -63.666)"></path>
                    </g>
                </g>
            </g>
        </g>
    </svg>