<svg xmlns="http://www.w3.org/2000/svg" xmlns:xlink="http://www.w3.org/1999/xlink" width="125" height="125" viewBox="0 0 100 100">
	<g>
		<path d="M32.6178178,42 C33.192085,42.6020198 33.5605408,42.988398 33.9207513,43.3662151 C32.811827,44.4583149 31.7090464,45.5444382 30.6127327,46.6241002 C32.1969795,49.3327856 32.1796804,51.9140244 30.0746805,54.0189131 C27.9497948,56.1435084 25.3263054,56.1215405 22.5262676,54.6282018 C21.5044858,55.7589071 20.4620097,56.9125496 19.3868754,58.1022131 C18.8840682,57.5728815 18.4981516,57.1664737 18.0747265,56.7208143 C19.1718486,55.6493902 20.2833596,54.5639131 21.403601,53.470198 C20.6113968,52.0794304 20.0851469,50.6468268 20.5147156,49.1349122 C20.7994241,48.1326227 21.2534056,47.0873664 21.9169171,46.3021723 C23.2486285,44.7267767 26.0397742,43.6645598 29.3757624,45.4702962 C30.421472,44.3508979 31.483834,43.2137314 32.6178178,42 Z M75.2770779,44.5427948 C78.5868749,44.5352029 80.8718182,46.9549123 80.909165,50.1331635 C80.9453801,53.2111049 78.265143,55.7354853 75.1818518,55.7125482 C71.9941189,55.6891264 69.5508964,53.2185353 69.5736925,50.0680671 C69.5974586,46.7844989 72.3586946,44.3848191 75.2770779,44.5427948 Z M14.7999321,46.2307925 C14.4408534,46.635908 14.0748227,47.0491001 13.6750021,47.50009 C11.2878806,45.8075856 9.33873479,45.7909481 7.90306672,47.3986495 C6.69131759,48.7554959 6.63942013,51.2687308 7.79522994,52.6252542 C9.33824977,54.4363211 11.0201479,54.4539278 13.6777505,52.7035959 C14.0562302,53.0707521 14.4309913,53.4341931 14.8083392,53.800057 C13.0856991,56.0173702 9.28667566,56.3707964 7.07400074,54.501902 C4.53700711,52.3592154 4.28139999,48.6345105 6.56230148,46.1805568 C8.59212273,43.9966802 12.7290456,43.8920092 14.7999321,46.2307925 Z M41.6083819,44.5855516 C43.0052482,44.6314259 44.3182054,44.9672454 45.4651232,45.9721194 C45.1645706,46.3841807 44.8556109,46.8077106 44.5426094,47.2368941 C43.9854797,46.9737628 43.4626249,46.611614 42.8875493,46.4848135 C42.2014034,46.3334605 41.4384622,46.2441348 40.7713939,46.3985568 C40.3663997,46.4922438 39.9243821,47.0462894 39.7791985,47.4859723 C39.5924647,48.0519711 40.0247819,48.525252 40.5709178,48.7247408 C41.5781488,49.092543 42.6118945,49.3868495 43.627371,49.7331684 C44.6042073,50.0662419 45.4434588,50.5863663 45.728329,51.6587596 C46.2042982,53.4504429 45.1403194,55.13584 43.2842981,55.5386942 C41.132251,56.0055139 39.2590922,55.3837875 37.5178597,54.0145034 C37.905393,53.5473605 38.2277716,53.159044 38.4491038,52.8923591 C39.5289267,53.2965055 40.4939608,53.7630022 41.5125091,53.9964121 C42.0625251,54.1222434 42.7535212,53.9574835 43.2855915,53.715028 C43.6091018,53.5675517 43.9233967,53.0227133 43.9248518,52.6550725 C43.9264685,52.294539 43.6084551,51.743724 43.2883399,51.6056164 C42.2838573,51.1722332 41.2135732,50.8905261 40.1668936,50.5561603 C38.7688956,50.1096933 37.9849368,49.1912375 37.9354645,47.9309856 C37.8565674,45.9283449 39.3910185,44.5130249 41.6083819,44.5855516 Z M90.5591179,44.5362671 C92.0442583,44.5244754 93.4319091,44.871925 94.6152036,45.9112047 C94.2965435,46.3468494 93.9809552,46.7786173 93.7180727,47.1378585 C92.9586884,46.8320835 92.2487764,46.5282468 91.5243137,46.2644694 C91.2782453,46.1749821 90.9949919,46.1541449 90.7295227,46.1576985 C89.7512313,46.1706209 89.0248285,46.6392175 88.9000159,47.3094027 C88.7698681,48.0097938 89.2413104,48.5741773 90.2892835,48.9174272 C91.1059005,49.1849197 91.9390083,49.4020152 92.7561104,49.6685386 C94.238179,50.1518343 95.074197,51.2111437 94.9948149,52.4688111 C94.897487,54.0083472 93.9313211,55.1582745 92.4214446,55.4802025 C90.2664874,55.9395919 88.3917118,55.3219037 86.6721436,53.9532657 C87.0349408,53.5150366 87.3726785,53.1074981 87.5970825,52.8364519 C88.6966296,53.244475 89.6653822,53.701603 90.6853856,53.9421201 C91.2106655,54.0656901 91.8863025,53.9220905 92.3823194,53.6749506 C92.7274941,53.503245 93.0547229,52.9571143 93.0707287,52.5652441 C93.0851177,52.2186022 92.7367095,51.6681102 92.4117441,51.5312948 C91.37719,51.0959733 90.2747328,50.8236348 89.2060654,50.466332 C86.9547503,49.7131207 86.3120949,47.1155675 87.9765321,45.5031817 C88.6927494,44.8094132 89.5990957,44.5438589 90.5591179,44.5362671 Z M62.874765,44.7905808 L62.874765,55.3654216 L61.0801799,55.3654216 L61.0801799,47.9404028 L60.9183439,47.8807984 L60.9183439,47.8807984 C59.8155633,49.5075604 58.7127827,51.1343223 57.5920562,52.787575 C56.4925091,51.1643667 55.415273,49.5739489 54.3378752,47.9835311 L54.143381,48.0494351 L54.143381,48.0494351 L54.143381,55.3654216 L52.3563946,55.3654216 L52.3563946,44.7019012 C52.9086741,44.7019012 53.4464029,44.6489195 53.9645692,44.725969 C54.1980269,44.7605363 54.4500772,45.0165603 54.5963925,45.2367248 C55.5913363,46.7334556 56.5602506,48.2473085 57.5920562,49.8395031 C58.458954,48.4968713 59.3746774,47.2881473 60.0575898,45.9597301 C60.6986285,44.7130467 61.6051365,44.4875517 62.874765,44.7905808 Z M29.2706741,48.3400263 L24.1743758,53.4165702 C25.514171,54.3615168 27.4505444,54.1411908 28.721143,52.8559019 C29.845588,51.7185739 30.0963449,49.5175752 29.2706741,48.3400263 Z M75.2311624,46.1876059 C73.1196956,46.1777947 71.4995572,47.9008281 71.5220299,50.1321943 C71.5438559,52.3233397 73.1426534,53.9814383 75.2376294,53.9856461 C77.331312,53.9898378 78.9255826,52.3549995 78.97651,50.1512548 C79.0253357,48.0344128 77.2892767,46.1973397 75.2311624,46.1876059 Z M23.5540314,47.1369559 C22.3202945,48.1801123 21.9705929,50.4082479 22.795132,51.9211317 C24.4689464,50.2013288 26.1453476,48.47878 27.814635,46.7636616 C26.7262434,45.8691121 24.9017486,45.9976895 23.5540314,47.1369559 Z"></path>
	</g>
</svg>