<svg xmlns="http://www.w3.org/2000/svg" xmlns:xlink="http://www.w3.org/1999/xlink" width="125" height="125" viewBox="0 0 22.109 30.964">
	<g transform="translate(-13.997 -10.296)">
		<g transform="translate(6.546 5.103)">
			<path d="M19.773,6.427a1.234,1.234,0,0,0-1.234-1.234h0A1.234,1.234,0,0,0,17.3,6.427v28.5a1.234,1.234,0,0,0,1.234,1.234h0a1.234,1.234,0,0,0,1.234-1.234Z"></path>
		</g>
		<g transform="matrix(0.001, -1, 1, 0.001, 18.428, 54.784)">
			<path d="M19.773,2.888a1.234,1.234,0,0,0-1.234-1.234h0A1.234,1.234,0,0,0,17.3,2.888v7.4a1.234,1.234,0,0,0,1.234,1.234h0a1.234,1.234,0,0,0,1.234-1.234Z"></path>
		</g>
		<g transform="matrix(0.001, -1, 1, 0.001, 10.275, 38.64)">
			<path d="M19.773,4.941a1.234,1.234,0,0,0-1.234-1.234h0A1.234,1.234,0,0,0,17.3,4.941V24.58a1.234,1.234,0,0,0,1.234,1.234h0a1.234,1.234,0,0,0,1.234-1.234Z"></path>
		</g>
		<g transform="matrix(0.706, -0.708, 0.708, 0.706, 1.942, 23.243)">
			<path d="M19.773,4.795A1.234,1.234,0,0,0,18.539,3.56h0A1.234,1.234,0,0,0,17.3,4.795V23.558a1.234,1.234,0,0,0,1.234,1.234h0a1.234,1.234,0,0,0,1.234-1.234Z"></path>
		</g>
		<g transform="matrix(-0.708, -0.706, 0.706, -0.708, 28.195, 43.26)">
			<path d="M19.773,4.794A1.234,1.234,0,0,0,18.539,3.56h0A1.234,1.234,0,0,0,17.3,4.794V23.558a1.234,1.234,0,0,0,1.234,1.234h0a1.234,1.234,0,0,0,1.234-1.234Z"></path>
		</g>
	</g>
</svg>