<svg xmlns="http://www.w3.org/2000/svg" xmlns:xlink="http://www.w3.org/1999/xlink" width="125" height="125" viewBox="0 0 15.072 8.23">
	<g transform="translate(-2.5 -5.801)">
		<path d="M17.572,9.918c0-.571-2.146-1.05-5.126-1.22,1.764-.159,2.975-.485,2.975-.86S13.614,7.015,11.2,6.9c.883-.1,1.49-.313,1.49-.518,0-.228-1.188-.583-2.653-.583s-2.653.332-2.653.583.561.424,1.387.517c-2.363.1-4.118.471-4.118.936,0,.373,1.193.7,2.936.857C4.627,8.855,2.5,9.306,2.5,9.918s2.135,1.067,5.1,1.225c-1.752.163-2.953.492-2.953.856,0,.463,1.741.833,4.089.935-.81.095-1.357.279-1.357.514,0,.252,1.188.583,2.653.583s2.653-.355,2.653-.583c0-.2-.595-.41-1.462-.514,2.4-.114,4.194-.556,4.194-.934s-1.2-.693-2.947-.855C15.439,10.987,17.572,10.54,17.572,9.918ZM8.061,8.509a.739.739,0,0,1,.1-.074l1.525-.88a.7.7,0,0,1,.349-.093.693.693,0,0,1,.348.093l1.525.88a.682.682,0,0,1,.22.2v0l0,0a.734.734,0,0,1,.057.1.055.055,0,0,0,0,.012.758.758,0,0,1,.042.12.028.028,0,0,1,0,.023.246.246,0,0,1-.159.042,1.212,1.212,0,0,1-.187-.008c-.58-.062-1.161-.11-1.741-.171-.694-.074-1.38-.137-2.082-.235a.011.011,0,0,1-.008-.007A.009.009,0,0,1,8.061,8.509Zm4.128,2.59a.629.629,0,0,1-.05.088l-.012.018a.7.7,0,0,1-.181.174l-1.561.9a.7.7,0,0,1-.7,0L8.328,11.5h0a.313.313,0,0,1-.081-.071c-.018-.023-.016-.031-.016-.033s0-.007.027-.014a.294.294,0,0,1,.048-.012c.061-.01.123-.024.184-.034l.017,0,.3-.044c.2-.028.393-.052.579-.074s.38-.043.559-.059.367-.032.54-.044.345-.02.522-.027.341-.01.505-.011h.1c.132,0,.263,0,.391,0,.039,0,.078.008.116.009l.066.008a.01.01,0,0,1,.008,0A.007.007,0,0,1,12.188,11.1Zm.069-.746c0,.2-.258.226-.261.227a33.07,33.07,0,0,1-3.372.218c-.247,0-.495,0-.742-.008a.071.071,0,0,1-.047-.019.067.067,0,0,1-.02-.047V9.266a.03.03,0,0,0,0-.01c0-.1.09-.2.276-.205.118,0,.236-.009.356-.005a13.442,13.442,0,0,1,3.8.57.01.01,0,0,1,.008.009v.729Z"></path>
	</g>
</svg>