<svg xmlns="http://www.w3.org/2000/svg" xmlns:xlink="http://www.w3.org/1999/xlink" width="125" height="125" viewBox="0 0 7.283 13.116">
	<g transform="translate(-6.204 -3.566)">
		<path d="M.352,8.79A3.247,3.247,0,0,1,0,7.238,3.725,3.725,0,0,1,.277,5.761,4.335,4.335,0,0,1,.9,4.708a2.492,2.492,0,0,1,.821-.638,2.291,2.291,0,0,1,1.035-.244,1.708,1.708,0,0,1,1.227.436l1.4-1.169A6.431,6.431,0,0,1,5.34,2.36Q5.334,0,6.582,0a.611.611,0,0,1,.5.223.979.979,0,0,1,.2.574,1.755,1.755,0,0,1-.331,1.02A6.2,6.2,0,0,1,5.97,2.933a24.558,24.558,0,0,1,.331,3,5.8,5.8,0,0,1-.2,1.53A4.433,4.433,0,0,1,5.483,8.8a2.782,2.782,0,0,1-1.141.946,3.931,3.931,0,0,1-1.685.34,2.44,2.44,0,0,1-2.08-.935,5.518,5.518,0,0,0-.192,1.52,2.739,2.739,0,0,0,.448,1.541,1.367,1.367,0,0,0,1.173.691q.053,0,.053.106t-.053.106a1.626,1.626,0,0,1-1.387-.8,3.013,3.013,0,0,1-.544-1.754A5.435,5.435,0,0,1,.352,8.79ZM4.16,4.464a1.5,1.5,0,0,1,.3.914,2.434,2.434,0,0,1-.16.9,1.629,1.629,0,0,1-.544.7,1.421,1.421,0,0,1-.9.3.259.259,0,0,1-.171-.053.316.316,0,0,1-.075-.17,1.125,1.125,0,0,0,.843-.425,1.915,1.915,0,0,0,.555-1.339,1.558,1.558,0,0,0-.117-.6,17.3,17.3,0,0,0-2.016,2,6.487,6.487,0,0,0-1.2,2.13,2.085,2.085,0,0,0,1.91.979,2.776,2.776,0,0,0,1.4-.34,2.424,2.424,0,0,0,.949-.9A5.24,5.24,0,0,0,5.6,5.824q0-.393-.192-2.391Zm-.427.011a1.229,1.229,0,0,0-.939-.361A2.059,2.059,0,0,0,1.717,4.4,2.991,2.991,0,0,0,.448,6.186,3.558,3.558,0,0,0,.277,7.28a3.225,3.225,0,0,0,.2,1.158A10.968,10.968,0,0,1,3.734,4.474ZM5.878,1.817a7.26,7.26,0,0,0,.053.765A2.8,2.8,0,0,0,6.987.84q0-.553-.405-.553-.7,0-.7,1.53Z" transform="translate(6.205 3.567)"></path>
	</g>
</svg>