<svg xmlns="http://www.w3.org/2000/svg" xmlns:xlink="http://www.w3.org/1999/xlink" width="1752" height="405" viewBox="0 0 1752 405">
  <defs>
    <clipPath id="clip-path">
      <rect id="Rectangle_4" data-name="Rectangle 4" width="400" height="400" rx="200" fill="none"/>
    </clipPath>
    <clipPath id="clip-path-2">
      <rect id="Rectangle_2" data-name="Rectangle 2" width="230" height="159" transform="translate(0.001 0.099)" fill="#a1a1aa"/>
    </clipPath>
    <clipPath id="clip-EZStakingTools-logo">
      <rect width="1752" height="405"/>
    </clipPath>
  </defs>
  <g id="EZStakingTools-logo" clip-path="url(#clip-EZStakingTools-logo)">
    <g id="Groupe_267" data-name="Groupe 267">
      <g id="Groupe_264" data-name="Groupe 264" transform="translate(0 -14.655)">
        <g id="Groupe_265" data-name="Groupe 265" transform="translate(-512 -13.345)">
          <path id="Tracé_40" data-name="Tracé 40" d="M43.2-118.4v36.6H89.6v21.6H43.2v38.6H95.6V0H15V-140H95.6v21.6ZM151.8-21.6h62.8V0H119.4V-21.6L182.2-118H119.4v-21.6h95.2V-118Zm245.6-19a38.055,38.055,0,0,1-6.1,20.8A43.656,43.656,0,0,1,373.9-4.4q-11.3,5.8-26.3,5.8-23,0-37-10.7t-14-30.1h30q.8,9,6.1,13.7T347.6-21q9.6,0,15.2-5a16.612,16.612,0,0,0,5.6-13,14.267,14.267,0,0,0-3.9-10.4,26.537,26.537,0,0,0-9.6-6.2q-5.7-2.2-16.1-5a151.092,151.092,0,0,1-21.8-7,36.168,36.168,0,0,1-14.4-11.3q-6-7.7-6-20.9a39.058,39.058,0,0,1,6.3-22.1,40.645,40.645,0,0,1,17.5-14.6,60.642,60.642,0,0,1,25.4-5.1q21.8,0,35,9.9t14.4,30.1H364.4q-.8-8-6-12.7T345-119q-8.6,0-13.9,4.3t-5.3,13.1a14.885,14.885,0,0,0,3.9,10.7,25.764,25.764,0,0,0,9.7,6.3,155.785,155.785,0,0,0,16,4.8,151.093,151.093,0,0,1,21.8,7,35.43,35.43,0,0,1,14.3,11.3Q397.4-53.8,397.4-40.6Zm122.2-99V-118H481.8V0h-28V-118H416.2v-21.6ZM623.8-26.2H569.4L560.4,0H530.6L580-140h33.4L662.6,0H632.8Zm-7.2-21.6-20-58.2L576.8-47.8ZM737-69.6,797.6,0H761L710.4-62V0H682.2V-139.6h28.2v62.4l50.4-62.4h36.8Zm108.2-70V0H817V-139.6ZM994.8,0H966.6L903.4-96.8V0H875.2V-140h28.2l63.2,96.8V-140h28.2Zm93.6-141.6q22.8,0,40.5,11.6t25.3,32.6h-33.8q-9.4-18.4-32-18.4a43.792,43.792,0,0,0-22.3,5.6,38.482,38.482,0,0,0-15.1,16q-5.4,10.4-5.4,24t5.4,24a39.143,39.143,0,0,0,15.1,16.1,43.189,43.189,0,0,0,22.3,5.7q15.6,0,25.5-8.5t12.3-22.9h-46.4V-77.2h76.6v21.4A64.541,64.541,0,0,1,1145-28.1a69.967,69.967,0,0,1-23.9,21.2,66.617,66.617,0,0,1-32.7,8.1,72.953,72.953,0,0,1-36-9.1,67.231,67.231,0,0,1-25.9-25.4q-9.5-16.3-9.5-36.9,0-20.4,9.5-36.7a67.956,67.956,0,0,1,25.9-25.5A72.328,72.328,0,0,1,1088.4-141.6Z" transform="translate(526 213.6)" fill="#a1a1aa"/>
          <path id="Tracé_37" data-name="Tracé 37" d="M81.6-117.3v9.69H50.83V0H39.1V-107.61H8.33v-9.69Zm74.8-1.19a60.786,60.786,0,0,1,30.175,7.65A56.177,56.177,0,0,1,208.165-89.5a60.556,60.556,0,0,1,7.9,30.855,60.556,60.556,0,0,1-7.9,30.855A56.177,56.177,0,0,1,186.575-6.46,60.786,60.786,0,0,1,156.4,1.19a60.786,60.786,0,0,1-30.175-7.65A56.177,56.177,0,0,1,104.635-27.8a60.556,60.556,0,0,1-7.9-30.855,60.556,60.556,0,0,1,7.9-30.855,56.177,56.177,0,0,1,21.59-21.335A60.786,60.786,0,0,1,156.4-118.49Zm0,10.37A48.72,48.72,0,0,0,132.09-102,43.742,43.742,0,0,0,115-84.66q-6.2,11.22-6.2,26.01T115-32.64A44.329,44.329,0,0,0,132.09-15.215a48.194,48.194,0,0,0,24.31,6.2,47.729,47.729,0,0,0,24.225-6.2,44.5,44.5,0,0,0,17-17.425q6.205-11.22,6.205-26.01t-6.205-26.01a43.908,43.908,0,0,0-17-17.34A48.249,48.249,0,0,0,156.4-108.12Zm132.77-10.37a60.786,60.786,0,0,1,30.175,7.65A56.177,56.177,0,0,1,340.935-89.5a60.557,60.557,0,0,1,7.9,30.855,60.557,60.557,0,0,1-7.9,30.855A56.177,56.177,0,0,1,319.345-6.46,60.786,60.786,0,0,1,289.17,1.19a60.786,60.786,0,0,1-30.175-7.65A56.177,56.177,0,0,1,237.4-27.8a60.556,60.556,0,0,1-7.9-30.855A60.556,60.556,0,0,1,237.4-89.5a56.177,56.177,0,0,1,21.59-21.335A60.786,60.786,0,0,1,289.17-118.49Zm0,10.37A48.72,48.72,0,0,0,264.86-102a43.742,43.742,0,0,0-17.085,17.34q-6.205,11.22-6.205,26.01t6.205,26.01A44.329,44.329,0,0,0,264.86-15.215a48.194,48.194,0,0,0,24.31,6.2,47.729,47.729,0,0,0,24.225-6.2,44.5,44.5,0,0,0,17-17.425Q336.6-43.86,336.6-58.65t-6.205-26.01a43.907,43.907,0,0,0-17-17.34A48.249,48.249,0,0,0,289.17-108.12ZM380.12-9.18h42.67V0H368.22V-117.3h11.9ZM513.06-32.3a32.737,32.737,0,0,1-4.335,16.235A32.2,32.2,0,0,1,495.72-3.57q-8.67,4.76-21.25,4.76A51.549,51.549,0,0,1,455.09-2.3,31.642,31.642,0,0,1,441.4-12.325,24.571,24.571,0,0,1,436.39-27.71h12.58a19.219,19.219,0,0,0,6.97,13.515q6.29,5.355,18.53,5.355,12.75,0,20.145-6.46a20.739,20.739,0,0,0,7.4-16.32q0-7.48-3.91-11.73a23.589,23.589,0,0,0-9.69-6.29,125.08,125.08,0,0,0-15.64-4.08,130.589,130.589,0,0,1-18.955-5.355A28.831,28.831,0,0,1,441.49-68.34q-5.1-6.46-5.1-17.85,0-14.62,10.115-23.46t27.965-8.84q15.3,0,24.82,7.65a31.59,31.59,0,0,1,11.56,20.4H497.42q-.68-7.14-7.14-12.495t-17.51-5.355q-11.39,0-18.36,5.61t-6.97,16.32q0,7.48,3.91,11.815a23.78,23.78,0,0,0,9.86,6.46,122.451,122.451,0,0,0,15.81,4.165,154.957,154.957,0,0,1,18.955,5.355,27.649,27.649,0,0,1,12.07,8.925Q513.06-43.35,513.06-32.3Z" transform="translate(1169.67 388.5)" fill="#a1a1aa"/>
        </g>
      </g>
      <g id="Groupe_266" data-name="Groupe 266" transform="translate(1290)">
        <g id="Groupe_261" data-name="Groupe 261">
          <g id="Homepage_mobile_12" data-name="Homepage_mobile – 12" transform="translate(15 3)" clip-path="url(#clip-path)">
            <path id="Rectangle_3" data-name="Rectangle 3" d="M0,0H400V400H0Z" fill="none"/>
            <g id="Component_1_1" data-name="Component 1 – 1" transform="translate(152.864 219.514)">
              <g id="Mask_Group_1" data-name="Mask Group 1" transform="translate(-67.866 -99.113)" clip-path="url(#clip-path-2)">
                <g id="Group_1" data-name="Group 1" transform="translate(5.825 6.469)">
                  <path id="Path_1" data-name="Path 1" d="M3089.05,937.013c-9.053-5.258-14.85-8.722-19.951-11.771-18.488-11.046-27.718-16.569-28.667-16.026s-.84,11.373-.589,32.987c.1,8.05.209,17.191.209,23.265s-.112,15.215-.209,23.265c-.266,21.614-.4,32.436.589,32.987h0c1.079.451,10.32-5.075,28.674-16.035,12.01-7.177,24.12-14.1,36.3-20.986l17.282,9.7c-11.576,6.906-13.5,7.519-25.155,14.289-7.092,4.128-13.842,8.153-19.786,11.7-24.147,14.428-36.222,21.641-45.778,16.091h-.033c-9.536-5.538-9.362-19.68-9.018-47.964.068-5.508.145-11.771.145-23.065s-.076-17.554-.145-23.065c-.344-28.281-.519-42.423,9.018-47.964s21.652,1.657,45.811,16.091c6.487,3.875,13.859,8.277,19.756,11.7,5.677,3.3,13.269,7.584,19.962,11.361,24.53,13.859,36.8,20.771,36.8,31.87a13.978,13.978,0,0,1-2.085,7.372l-22.759-12.774c-4.668-2.751-11.42-6.561-20.258-11.553C3104.08,945.65,3098.32,942.4,3089.05,937.013Z" transform="translate(-3022.797 -892.559)" fill="#a1a1aa"/>
                  <path id="Path_2" data-name="Path 2" d="M3617.85,993.913c9.052,5.257,14.849,8.722,19.951,11.771,18.486,11.046,27.717,16.569,28.667,16.023s.84-11.373.59-32.987c-.1-8.05-.21-17.191-.21-23.265s.112-15.215.21-23.265c.265-21.614.4-32.436-.59-32.987h0c-1.082-.451-10.321,5.075-28.674,16.035-12.013,7.177-24.12,14.1-36.3,20.986l-17.283-9.7c11.576-6.906,13.5-7.519,25.156-14.289,7.077-4.128,13.841-8.153,19.785-11.7,24.147-14.428,36.222-21.644,45.779-16.091h.032c9.532,5.538,9.363,19.68,9.018,47.963-.068,5.508-.144,11.771-.144,23.065s.076,17.554.144,23.065c.345,28.281.519,42.423-9.018,47.963s-21.652-1.657-45.811-16.091c-6.487-3.875-13.859-8.277-19.755-11.7-5.677-3.3-13.27-7.587-19.963-11.361-24.53-13.859-36.8-20.771-36.8-31.872a13.974,13.974,0,0,1,2.085-7.372l22.758,12.777c4.667,2.751,11.42,6.561,20.261,11.553C3602.82,985.276,3608.58,988.526,3617.85,993.913Z" transform="translate(-3467.198 -892.55)" fill="#a1a1aa"/>
                </g>
              </g>
            </g>
            <g id="Rectangle_702" data-name="Rectangle 702" transform="translate(15 15)" fill="none" stroke="#a1a1aa" stroke-width="14">
              <rect width="370" height="370" rx="183" stroke="none"/>
              <rect x="7" y="7" width="356" height="356" rx="176" fill="none"/>
            </g>
          </g>
        </g>
      </g>
    </g>
  </g>
</svg>
