<svg xmlns="http://www.w3.org/2000/svg" xmlns:xlink="http://www.w3.org/1999/xlink" width="400" height="400" viewBox="0 0 400 400">
  <defs>
    <clipPath id="clip-path">
      <rect id="Rectangle_4" data-name="Rectangle 4" width="400" height="400" rx="200"/>
    </clipPath>
    <linearGradient id="linear-gradient" x1="0.432" y1="0.5" x2="0.519" y2="1.214" gradientUnits="objectBoundingBox">
      <stop offset="0" stop-color="#13c795"/>
      <stop offset="1" stop-color="#1c90d3"/>
    </linearGradient>
    <clipPath id="clip-path-2">
      <rect id="Rectangle_2" data-name="Rectangle 2" width="230" height="159" transform="translate(0.001 0.099)" fill="#fff"/>
    </clipPath>
  </defs>
  <g id="Homepage_mobile_12" data-name="Homepage_mobile – 12" clip-path="url(#clip-path)">
    <rect id="Rectangle_3" data-name="Rectangle 3" width="400" height="400" fill="url(#linear-gradient)"/>
    <g id="Component_1_1" data-name="Component 1 – 1" transform="translate(152.864 219.514)">
      <g id="Mask_Group_1" data-name="Mask Group 1" transform="translate(-67.866 -99.113)" clip-path="url(#clip-path-2)">
        <g id="Group_1" data-name="Group 1" transform="translate(5.825 6.469)">
          <path id="Path_1" data-name="Path 1" d="M3089.05,937.013c-9.053-5.258-14.85-8.722-19.951-11.771-18.488-11.046-27.718-16.569-28.667-16.026s-.84,11.373-.589,32.987c.1,8.05.209,17.191.209,23.265s-.112,15.215-.209,23.265c-.266,21.614-.4,32.436.589,32.987h0c1.079.451,10.32-5.075,28.674-16.035,12.01-7.177,24.12-14.1,36.3-20.986l17.282,9.7c-11.576,6.906-13.5,7.519-25.155,14.289-7.092,4.128-13.842,8.153-19.786,11.7-24.147,14.428-36.222,21.641-45.778,16.091h-.033c-9.536-5.538-9.362-19.68-9.018-47.964.068-5.508.145-11.771.145-23.065s-.076-17.554-.145-23.065c-.344-28.281-.519-42.423,9.018-47.964s21.652,1.657,45.811,16.091c6.487,3.875,13.859,8.277,19.756,11.7,5.677,3.3,13.269,7.584,19.962,11.361,24.53,13.859,36.8,20.771,36.8,31.87a13.977,13.977,0,0,1-2.085,7.372l-22.759-12.774c-4.668-2.751-11.42-6.561-20.258-11.553C3104.08,945.65,3098.32,942.4,3089.05,937.013Z" transform="translate(-3022.797 -892.559)" fill="#fff"/>
          <path id="Path_2" data-name="Path 2" d="M3617.85,993.913c9.052,5.257,14.849,8.722,19.951,11.771,18.486,11.046,27.717,16.569,28.667,16.023s.84-11.373.59-32.987c-.1-8.05-.21-17.191-.21-23.265s.112-15.215.21-23.265c.265-21.614.4-32.436-.59-32.987h0c-1.082-.451-10.321,5.075-28.674,16.035-12.013,7.177-24.12,14.1-36.3,20.986l-17.283-9.7c11.576-6.906,13.5-7.519,25.156-14.289,7.077-4.128,13.841-8.153,19.785-11.7,24.147-14.428,36.222-21.644,45.779-16.091h.032c9.532,5.538,9.363,19.68,9.018,47.963-.068,5.508-.144,11.771-.144,23.065s.076,17.554.144,23.065c.345,28.281.519,42.423-9.018,47.963s-21.652-1.657-45.811-16.091c-6.487-3.875-13.859-8.277-19.755-11.7-5.677-3.3-13.27-7.587-19.963-11.361-24.53-13.859-36.8-20.771-36.8-31.872a13.974,13.974,0,0,1,2.085-7.372l22.758,12.777c4.667,2.751,11.42,6.561,20.261,11.553C3602.82,985.276,3608.58,988.526,3617.85,993.913Z" transform="translate(-3467.198 -892.55)" fill="#fff"/>
        </g>
      </g>
    </g>
    <g id="Rectangle_702" data-name="Rectangle 702" transform="translate(15 15)" fill="none" stroke="#fff" stroke-width="14">
      <rect width="370" height="370" rx="183" stroke="none"/>
      <rect x="7" y="7" width="356" height="356" rx="176" fill="none"/>
    </g>
  </g>
</svg>
