<svg xmlns="http://www.w3.org/2000/svg" xmlns:xlink="http://www.w3.org/1999/xlink" width="125" height="125" viewBox="0 0 125 125">
  <defs>
    <clipPath id="clip-path">
      <rect id="Rectangle_2" data-name="Rectangle 2" width="78" height="54" fill="#fff"/>
    </clipPath>
    <clipPath id="clip-iPhone_12_12_Pro_1">
      <rect width="125" height="125"/>
    </clipPath>
  </defs>
  <g id="iPhone_12_12_Pro_1" data-name="iPhone 12, 12 Pro – 1" clip-path="url(#clip-iPhone_12_12_Pro_1)">
    <rect width="125" height="125" fill="#0ac98e"/>
    <g id="Component_1_1" data-name="Component 1 – 1" transform="translate(24 36)">
      <g id="Mask_Group_1" data-name="Mask Group 1" clip-path="url(#clip-path)">
        <g id="Group_1" data-name="Group 1" transform="translate(2.024 2.182)">
          <path id="Path_1" data-name="Path 1" d="M3045.264,907.635c-3.07-1.783-5.036-2.958-6.766-3.992-6.27-3.746-9.4-5.619-9.722-5.435s-.285,3.857-.2,11.187c.033,2.73.071,5.83.071,7.89s-.038,5.16-.071,7.89c-.09,7.33-.135,11,.2,11.187l0,0c.366.153,3.5-1.721,9.724-5.438,4.073-2.434,8.18-4.783,12.309-7.117l5.861,3.29c-3.926,2.342-4.578,2.55-8.531,4.846-2.405,1.4-4.694,2.765-6.71,3.969-8.189,4.893-12.284,7.339-15.525,5.457h-.011c-3.234-1.878-3.175-6.674-3.058-16.266.023-1.868.049-3.992.049-7.822s-.026-5.953-.049-7.822c-.117-9.591-.176-14.387,3.058-16.266s7.343.562,15.536,5.457c2.2,1.314,4.7,2.807,6.7,3.969,1.925,1.118,4.5,2.572,6.77,3.853,8.319,4.7,12.479,7.044,12.479,10.808a4.739,4.739,0,0,1-.707,2.5l-7.718-4.332c-1.583-.933-3.873-2.225-6.87-3.918C3050.361,910.564,3048.409,909.461,3045.264,907.635Z" transform="translate(-3022.795 -892.562)" fill="#fff"/>
          <path id="Path_2" data-name="Path 2" d="M3574.76,926.936c3.07,1.783,5.036,2.958,6.766,3.992,6.269,3.746,9.4,5.619,9.722,5.434s.285-3.857.2-11.187c-.033-2.73-.071-5.83-.071-7.89s.038-5.16.071-7.89c.09-7.33.135-11-.2-11.187l0,0c-.367-.153-3.5,1.721-9.724,5.438-4.074,2.434-8.18,4.783-12.309,7.117l-5.861-3.29c3.926-2.342,4.578-2.55,8.531-4.846,2.4-1.4,4.694-2.765,6.71-3.969,8.189-4.893,12.284-7.34,15.525-5.457h.011c3.233,1.878,3.175,6.674,3.058,16.266-.023,1.868-.049,3.992-.049,7.822s.026,5.953.049,7.822c.117,9.591.176,14.387-3.058,16.266s-7.343-.562-15.536-5.457c-2.2-1.314-4.7-2.807-6.7-3.969-1.925-1.118-4.5-2.573-6.77-3.853-8.319-4.7-12.479-7.044-12.479-10.809a4.739,4.739,0,0,1,.707-2.5l7.718,4.333c1.583.933,3.873,2.225,6.871,3.918C3569.663,924.007,3571.615,925.109,3574.76,926.936Z" transform="translate(-3523.666 -892.563)" fill="#fff"/>
        </g>
      </g>
    </g>
  </g>
</svg>
