<svg xmlns="http://www.w3.org/2000/svg" xmlns:xlink="http://www.w3.org/1999/xlink" width="1500" height="500" viewBox="0 0 1500 500">
  <defs>
    <clipPath id="clip-Homepage_mobile_13">
      <rect width="1500" height="500"/>
    </clipPath>
  </defs>
  <g id="Homepage_mobile_13" data-name="Homepage_mobile – 13" clip-path="url(#clip-Homepage_mobile_13)">
    <rect width="1500" height="500" fill="#f08984"/>
    <g id="JunoMint" transform="translate(-304.513 -401.651)" opacity="0.099">
      <path id="path1662" d="M313.2,1228.46c-21.1-33.177-32.321-90.663-31.664-162.253.881-95.958,22.078-180.363,75.3-299.824C399.394,670.85,467.424,562.55,484.875,562.55c2.354,0,13.1,19.8,23.871,43.989s21.3,44.01,23.4,44.035,28-25.107,57.572-55.849c97.432-101.289,180.762-164.084,279.869-210.9,73.762-34.845,225.838-79.629,225.838-66.506,0,2.131-11.932,18.7-26.515,36.819s-25.4,34.016-24.026,35.325,23.1-4.815,48.3-13.607c121.356-42.345,364.942-87.184,364.942-67.179,0,3.488-8.019,19.928-17.821,36.533S1425.16,375.4,1428.432,375.4s23.6-4.066,45.168-9.037c74.29-17.118,287.875-11.566,312.616,8.127,18.892,15.036,6.243,22.472-63.749,37.475C1477.375,464.5,1232.273,573.48,1004.609,731.142c-194.384,134.616-407.9,306.833-522.362,421.323C423.53,1211.2,381.341,1240.349,350.2,1243.7c-23.964,2.583-26.26,1.637-37-15.245Z" transform="translate(-62 127.377)" fill="#fff"/>
      <path id="path1664" d="M623.168,1370.014c-7.949-1.255-36.567-5.1-63.594-8.536-154.025-19.6-248.385-82.642-248.561-166.052-.062-29.435,17.42-54.451,82.162-117.567C563.267,912.038,874.135,675,1068.91,562.6c173.009-99.833,388.068-182.868,561.828-216.922,65.5-12.837,70.054-10.593,66.4,32.7-3.615,42.869-36.808,120.424-83.452,194.976-18.552,29.652-34.467,55.4-35.367,57.212s16.01.051,37.578-3.926c61.417-11.318,61.241-11.361,50.764,12.514-18.228,41.537-66.287,98.76-233.963,278.576l-25.852,27.725,20.071-3.316c11.039-1.824,32.781-5.011,48.316-7.083l28.245-3.767-10.9,18.62c-18.374,31.383-117.947,122.034-170.2,154.952-63.816,40.2-173.149,89.921-270.168,122.867-42.248,14.347-74.768,27.906-72.265,30.131s24.845,12.013,49.651,21.752c44.344,17.411,44.926,17.892,34.687,28.681-16.223,17.094-60.749,36.371-112.993,48.918-39.932,9.589-69.461,11.759-180.7,13.273-73.132,1-139.472.783-147.421-.471Z" transform="translate(83.46 247.66)" fill="rgba(255,255,255,0.94)"/>
    </g>
    <g id="Groupe_552" data-name="Groupe 552" transform="translate(618.467 114)">
      <text id="Craft_your_custom_assets_on_the_Juno_Network" data-name="Craft your custom assets
on the Juno Network" transform="translate(-289.467 46)" fill="#fff" font-size="65" font-family="Poppins-Medium, Poppins" font-weight="500"><tspan x="7.53" y="68">Craft your </tspan><tspan y="68" font-family="Poppins-Bold, Poppins" font-weight="700">custom assets</tspan><tspan x="171.46" y="143">on the Juno Network</tspan></text>
    </g>
  </g>
</svg>
