<svg xmlns="http://www.w3.org/2000/svg" viewBox="0 0 400 400">
  <circle cx="200" cy="200" r="190" fill="white" />
  <path d="M-744-3013a201.524,201.524,0,0,1-40.307-4.063,199.042,199.042,0,0,1-37.542-11.654,200.038,200.038,0,0,1-33.973-18.439,201.46,201.46,0,0,1-29.6-24.422,201.438,201.438,0,0,1-24.422-29.6,200.053,200.053,0,0,1-18.44-33.973,198.987,198.987,0,0,1-11.654-37.542A201.473,201.473,0,0,1-944-3213a201.473,201.473,0,0,1,4.063-40.307,198.987,198.987,0,0,1,11.654-37.542,200,200,0,0,1,18.44-33.973,201.461,201.461,0,0,1,24.422-29.6,201.427,201.427,0,0,1,29.6-24.422,200,200,0,0,1,33.973-18.44,198.971,198.971,0,0,1,37.542-11.654A201.472,201.472,0,0,1-744-3413a201.474,201.474,0,0,1,40.307,4.063,198.968,198.968,0,0,1,37.542,11.654,199.992,199.992,0,0,1,33.972,18.44,201.423,201.423,0,0,1,29.6,24.422,201.455,201.455,0,0,1,24.422,29.6,200.017,200.017,0,0,1,18.44,33.973,198.988,198.988,0,0,1,11.654,37.542A201.473,201.473,0,0,1-544-3213a201.473,201.473,0,0,1-4.063,40.307,198.988,198.988,0,0,1-11.654,37.542,200.029,200.029,0,0,1-18.44,33.973,201.432,201.432,0,0,1-24.422,29.6,201.443,201.443,0,0,1-29.6,24.422,200.02,200.02,0,0,1-33.972,18.439,199.017,199.017,0,0,1-37.542,11.654A201.526,201.526,0,0,1-744-3013Zm-20.485-207.439h0a13.971,13.971,0,0,0-2.087,7.373c0,11.08,12.251,18,36.658,31.792l.143.081c7.08,3.993,14.453,8.159,19.962,11.36,5.638,3.273,12.562,7.4,19.756,11.7l.008,0c9,5.378,16.777,10.022,23.109,13.148,6.733,3.323,11.553,4.8,15.63,4.8a13.68,13.68,0,0,0,7.063-1.869c9.536-5.539,9.364-19.711,9.019-47.946v-.017c-.064-5.1-.145-11.437-.145-23.066s.08-17.968.145-23.063c.345-28.246.518-42.423-9.019-47.963h-.032a13.7,13.7,0,0,0-7.071-1.873c-4.073,0-8.887,1.483-15.612,4.809-6.265,3.1-13.685,7.532-23.08,13.145l-.015.009c-5.82,3.472-12.629,7.525-19.786,11.7-5.248,3.048-8.471,4.82-11.589,6.534-3.7,2.035-7.2,3.958-13.567,7.756l17.284,9.7c10.763-6.084,23.493-13.335,36.3-20.984l.45-.269c17.608-10.515,26.446-15.793,28.068-15.793a.407.407,0,0,1,.157.025c.988.55.856,11.329.593,32.8l0,.186v.063c-.1,8.013-.211,17.1-.211,23.2,0,5.919.1,14.738.212,23.264.241,20.912.375,32.432-.591,32.987a.363.363,0,0,1-.179.037c-1.61,0-10.473-5.3-28.131-15.847l-.009-.005-.348-.208-.376-.224c-5.029-3-10.729-6.409-19.575-11.547-8.76-5.089-14.375-8.27-20.112-11.479l-.066-.037c-8.68-4.9-15.536-8.771-20.2-11.516l-22.756-12.777Zm-78.351,78.365a13.708,13.708,0,0,0,7.071,1.873c4.071,0,8.886-1.483,15.613-4.809,6.276-3.1,13.7-7.539,23.1-13.155l.032-.019c5.591-3.335,12.549-7.486,19.753-11.681,5.26-3.056,8.484-4.827,11.6-6.54,3.7-2.034,7.2-3.955,13.555-7.748l-17.282-9.7c-10.863,6.142-23.672,13.439-36.3,20.986l-.266.159c-17.729,10.587-26.627,15.9-28.251,15.9a.405.405,0,0,1-.157-.025c-.986-.549-.854-11.37-.59-32.926v-.061l.006-.523c.1-7.862.2-16.772.2-22.742,0-6.072-.109-15.192-.21-23.265-.241-20.916-.375-32.435.589-32.986a.361.361,0,0,1,.178-.037c1.609,0,10.478,5.3,28.146,15.856l.344.206c5.058,3.024,10.791,6.452,19.949,11.771,9.371,5.445,15.205,8.733,20.114,11.475l.837.472c8.324,4.7,14.9,8.415,19.422,11.081l22.758,12.773a13.944,13.944,0,0,0,2.087-7.373c0-11.078-12.256-18-36.673-31.8l-.129-.073-.058-.033c-6.666-3.761-14.221-8.024-19.9-11.327-5.99-3.478-13.592-8.019-19.7-11.667l-.055-.033c-9.006-5.381-16.784-10.028-23.118-13.154-6.733-3.324-11.553-4.806-15.629-4.805a13.691,13.691,0,0,0-7.064,1.869c-9.534,5.54-9.362,19.709-9.019,47.938v.024c.064,5.114.145,11.479.145,23.066,0,11.253-.076,17.5-.144,23.006v.084c-.343,28.231-.515,42.4,9.019,47.938Z" transform="translate(944 3413)" fill="#13c795"/>
</svg>
